<mxfile host="app.diagrams.net" modified="2020-12-22T19:01:39.531Z" agent="5.0 (Windows NT 10.0; Win64; x64) AppleWebKit/537.36 (KHTML, like Gecko) Chrome/87.0.4280.88 Safari/537.36" etag="I8ZcEHb4KT-foN9g9PdC" version="14.1.1" type="github">
  <diagram name="Page-1" id="e7e014a7-5840-1c2e-5031-d8a46d1fe8dd">
    <mxGraphModel dx="1422" dy="794" grid="1" gridSize="10" guides="1" tooltips="1" connect="1" arrows="1" fold="1" page="1" pageScale="1" pageWidth="1169" pageHeight="826" background="#ffffff" math="0" shadow="0">
      <root>
        <mxCell id="0" />
        <mxCell id="1" parent="0" />
        <mxCell id="rr55XMxGJXw-yliVTniT-41" value="&lt;b&gt;Constitution des commandes&lt;/b&gt;" style="verticalAlign=top;align=left;spacingTop=8;spacingLeft=2;spacingRight=12;shape=cube;size=10;direction=south;fontStyle=4;html=1;fillColor=#dae8fc;strokeColor=#6c8ebf;gradientColor=#ffffff;" vertex="1" parent="1">
          <mxGeometry x="190" y="60" width="810" height="520" as="geometry" />
        </mxCell>
        <mxCell id="rr55XMxGJXw-yliVTniT-51" style="rounded=0;orthogonalLoop=1;jettySize=auto;html=1;exitX=0.5;exitY=0;exitDx=0;exitDy=0;entryX=0.5;entryY=1;entryDx=0;entryDy=0;dashed=1;" edge="1" parent="1" source="rr55XMxGJXw-yliVTniT-42" target="rr55XMxGJXw-yliVTniT-47">
          <mxGeometry relative="1" as="geometry" />
        </mxCell>
        <mxCell id="rr55XMxGJXw-yliVTniT-54" value="&amp;lt;&amp;lt;include&amp;gt;&amp;gt;" style="edgeLabel;html=1;align=center;verticalAlign=middle;resizable=0;points=[];" vertex="1" connectable="0" parent="rr55XMxGJXw-yliVTniT-51">
          <mxGeometry x="0.1824" y="-2" relative="1" as="geometry">
            <mxPoint x="4.82" y="3.04" as="offset" />
          </mxGeometry>
        </mxCell>
        <mxCell id="rr55XMxGJXw-yliVTniT-52" style="edgeStyle=none;rounded=0;orthogonalLoop=1;jettySize=auto;html=1;exitX=0.5;exitY=0;exitDx=0;exitDy=0;entryX=0.5;entryY=1;entryDx=0;entryDy=0;dashed=1;" edge="1" parent="1" source="rr55XMxGJXw-yliVTniT-42" target="rr55XMxGJXw-yliVTniT-48">
          <mxGeometry relative="1" as="geometry" />
        </mxCell>
        <mxCell id="rr55XMxGJXw-yliVTniT-55" value="&amp;lt;&amp;lt;include&amp;gt;&amp;gt;" style="edgeLabel;html=1;align=center;verticalAlign=middle;resizable=0;points=[];" vertex="1" connectable="0" parent="rr55XMxGJXw-yliVTniT-52">
          <mxGeometry x="0.1927" y="-1" relative="1" as="geometry">
            <mxPoint as="offset" />
          </mxGeometry>
        </mxCell>
        <mxCell id="rr55XMxGJXw-yliVTniT-42" value="Passer une commande" style="ellipse;whiteSpace=wrap;html=1;gradientColor=#ffffff;" vertex="1" parent="1">
          <mxGeometry x="390" y="270" width="150" height="50" as="geometry" />
        </mxCell>
        <mxCell id="rr55XMxGJXw-yliVTniT-47" value="Constitution du panier" style="ellipse;whiteSpace=wrap;html=1;gradientColor=#ffffff;" vertex="1" parent="1">
          <mxGeometry x="270" y="150" width="150" height="50" as="geometry" />
        </mxCell>
        <mxCell id="rr55XMxGJXw-yliVTniT-48" value="Choix du point de livraison" style="ellipse;whiteSpace=wrap;html=1;gradientColor=#ffffff;" vertex="1" parent="1">
          <mxGeometry x="510" y="150" width="150" height="50" as="geometry" />
        </mxCell>
      </root>
    </mxGraphModel>
  </diagram>
</mxfile>
